<svg height="512" viewBox="0 0 64 64" width="512" xmlns="http://www.w3.org/2000/svg"><rect fill="#e6e7e8" height="48" rx="1" width="32" x="29" y="3"/><path d="m39 13h-34a2.006 2.006 0 0 0 -2 2v4a2.006 2.006 0 0 1 2-2h34a2.006 2.006 0 0 1 2 2v-4a2.006 2.006 0 0 0 -2-2z" fill="#00b39d"/><rect fill="#00ccb3" height="20" rx="2" width="38" x="3" y="17"/><path d="m18 55h-12a1 1 0 0 1 -1-1v-4a1 1 0 0 1 1-1h14a1 1 0 0 1 1 1v4a1 1 0 0 1 -1 1z" fill="#ff9811"/><path d="m31 55h3a1 1 0 0 1 1 1v4a1 1 0 0 1 -1 1h-14a1 1 0 0 1 -1-1v-4a1 1 0 0 1 1-1z" fill="#ff9811"/><path d="m15 55h3a1 1 0 0 1 1 1v4a1 1 0 0 1 -1 1h-14a1 1 0 0 1 -1-1v-4a1 1 0 0 1 1-1z" fill="#ee8700"/><path d="m15 43h3a1 1 0 0 1 1 1v4a1 1 0 0 1 -1 1h-14a1 1 0 0 1 -1-1v-4a1 1 0 0 1 1-1z" fill="#ee8700"/><circle cx="22" cy="27" fill="#ffd422" r="6"/><path d="m61 7.14v42.86a1 1 0 0 1 -1 1h-30a1 1 0 0 1 -1-1v-2.34a109.515 109.515 0 0 0 32-40.52z" fill="#d8d7da"/><g fill="#d1d3d4"><path d="m56 3h2v3h-2z"/><path d="m52 3h2v3h-2z"/><path d="m48 3h2v3h-2z"/><path d="m44 3h2v3h-2z"/><path d="m32 3h2v3h-2z"/><path d="m36 3h2v3h-2z"/><path d="m40 3h2v3h-2z"/></g><path d="m44 22h6v2h-6z" fill="#c6c5ca"/><path d="m52 22h4v2h-4z" fill="#acabb1"/><path d="m44 26h6v2h-6z" fill="#c6c5ca"/><path d="m52 26h4v2h-4z" fill="#acabb1"/><path d="m44 30h6v2h-6z" fill="#c6c5ca"/><path d="m52 30h4v2h-4z" fill="#acabb1"/><path d="m44 34h6v2h-6z" fill="#c6c5ca"/><path d="m52 34h4v2h-4z" fill="#acabb1"/><path d="m44 38h6v2h-6z" fill="#c6c5ca"/><path d="m52 38h4v2h-4z" fill="#acabb1"/><path d="m46 16h10v2h-10z" fill="#acabb1"/><path d="m46 12h10v2h-10z" fill="#acabb1"/><path d="m52 42h4v2h-4z" fill="#acabb1"/><path d="m44 42h6v2h-6z" fill="#c6c5ca"/><path d="m8 25h-2v-4a1 1 0 0 1 1-1h4v2h-3z" fill="#00b39d"/><path d="m38 25h-2v-3h-3v-2h4a1 1 0 0 1 1 1z" fill="#00b39d"/><path d="m11 34h-4a1 1 0 0 1 -1-1v-4h2v3h3z" fill="#00b39d"/><path d="m37 34h-4v-2h3v-3h2v4a1 1 0 0 1 -1 1z" fill="#00b39d"/><path d="m31 26h2v2h-2z" fill="#00b39d"/><path d="m11 26h2v2h-2z" fill="#00b39d"/><path d="m14 55h2v3h-2z" fill="#cc7400"/><path d="m6 55h2v3h-2z" fill="#cc7400"/><path d="m10 55h2v3h-2z" fill="#cc7400"/><path d="m30 55h2v3h-2z" fill="#ee8700"/><path d="m22 55h2v3h-2z" fill="#ee8700"/><path d="m26 55h2v3h-2z" fill="#ee8700"/><path d="m16 49h2v3h-2z" fill="#ee8700"/><path d="m8 49h2v3h-2z" fill="#ee8700"/><path d="m12 49h2v3h-2z" fill="#ee8700"/><path d="m14 43h2v3h-2z" fill="#cc7400"/><path d="m6 43h2v3h-2z" fill="#cc7400"/><path d="m10 43h2v3h-2z" fill="#cc7400"/></svg>