<svg id="Capa_1" enable-background="new 0 0 512 512" height="512" viewBox="0 0 512 512" width="512" xmlns="http://www.w3.org/2000/svg"><path d="m256 0c-91.54 0-166 74.54-166 166.15 0 42.26 25.99 112.39 77.26 208.45 37.6 70.45 75.74 129.92 76.12 130.51 2.76 4.3 7.51 6.89 12.62 6.89h.08c5.14-.03 9.9-2.68 12.63-7.04.38-.6 38.48-61.54 76.05-132.69 51.25-97.04 77.24-166.39 77.24-206.12 0-91.61-74.47-166.15-166-166.15z" fill="#00e2f8"/><path d="m422 166.15c0 39.73-25.99 109.08-77.24 206.12-37.57 71.15-75.67 132.09-76.05 132.69-2.73 4.36-7.49 7.01-12.63 7.04h-.08v-512c91.53 0 166 74.54 166 166.15z" fill="#00b9ed"/><path d="m280.31 102.09h-59.95c-8.28 0-15 6.71-15 15v125.82c0 8.29 6.72 15 15 15s15-6.71 15-15v-34.46h44.95c20.04 0 36.33-16.3 36.33-36.33v-33.71c0-20.03-16.29-36.32-36.33-36.32zm6.33 70.03c0 3.49-2.84 6.33-6.33 6.33h-44.95v-46.36h44.95c3.49 0 6.33 2.83 6.33 6.32z" fill="#fff"/><path d="m316.64 138.41v33.71c0 20.03-16.29 36.33-36.33 36.33h-24.31v-30h24.31c3.49 0 6.33-2.84 6.33-6.33v-33.71c0-3.49-2.84-6.32-6.33-6.32h-24.31v-30h24.31c20.04 0 36.33 16.29 36.33 36.32z" fill="#dbffff"/></svg>