<svg height="512pt" viewBox="-121 0 512 512" width="512pt" xmlns="http://www.w3.org/2000/svg"><path d="m150 286v90c0 8.402344-6.597656 15-15 15s-15-6.597656-15-15v-90c0-8.402344 6.597656-15 15-15s15 6.597656 15 15zm0 0" fill="#6e6e6e"/><path d="m135 391v-120c8.402344 0 15 6.597656 15 15v90c0 8.402344-6.597656 15-15 15zm0 0" fill="#444"/><path d="m225 0h-180c-24.902344 0-45 20.097656-45 45v211c0 24.902344 20.097656 45 45 45h180c24.902344 0 45-20.097656 45-45v-211c0-24.902344-20.097656-45-45-45zm0 0" fill="#3aaaff"/><path d="m270 45v211c0 24.902344-20.097656 45-45 45h-90v-301h90c24.902344 0 45 20.097656 45 45zm0 0" fill="#0095ff"/><path d="m150 61h-75c-8.402344 0-15 6.597656-15 15v150c0 8.402344 6.597656 15 15 15s15-6.597656 15-15v-45h60c33 0 60-27 60-60s-27-60-60-60zm0 90h-60v-60h60c16.5 0 30 13.5 30 30s-13.5 30-30 30zm0 0" fill="#e2e2e7"/><path d="m210 121c0 33-27 60-60 60h-15v-30h15c16.5 0 30-13.5 30-30s-13.5-30-30-30h-15v-30h15c33 0 60 27 60 60zm0 0" fill="#d3d3d8"/><path d="m209.699219 496.097656h-149.398438c0-.898437 0-1.796875.300781-2.699218l30-121c1.5-6.597657 7.5-11.398438 14.398438-11.398438h60c6.898438 0 12.898438 4.800781 14.398438 11.398438l30 121c.300781.902343.300781 1.800781.300781 2.699218zm0 0" fill="#e2e2e7"/><path d="m209.398438 493.398438c.300781.902343.300781 1.800781.300781 2.699218h-74.699219v-135.097656h30c6.898438 0 12.898438 4.800781 14.398438 11.398438zm0 0" fill="#babac0"/><path d="m270 497c0 8.402344-6.597656 15-15 15h-240c-8.402344 0-15-6.597656-15-15s6.597656-15 15-15h240c8.402344 0 15 6.597656 15 15zm0 0" fill="#6e6e6e"/><path d="m270 497c0 8.402344-6.597656 15-15 15h-120v-30h120c8.402344 0 15 6.597656 15 15zm0 0" fill="#444"/></svg>