<svg height="462pt" viewBox="0 0 462.61778 462" width="462pt" xmlns="http://www.w3.org/2000/svg"><path d="m446.617188 2.734375-9.257813-1.296875c-36.367187-5.207031-72.976563 7.773438-97.945313 34.726562l-36.261718 40.800782-52.550782 62.039062-125.242187 141.882813-13.296875 17.136719-10.796875 13.863281c-6.332031 8.070312-12.007813 16.628906-16.976563 25.597656-3.503906 6.199219-6.675781 12.582031-9.496093 19.121094-3.9375 9.011719-1.898438 19.519531 5.128906 26.398437l375.726563-375.726562c-2.441407-2.449219-5.609376-4.046875-9.03125-4.542969zm0 0" fill="#bddbff"/><path d="m460.191406 16.308594c-.496094-3.421875-2.09375-6.589844-4.542968-9.03125l-375.726563 375.726562c6.878906 7.027344 17.386719 9.066406 26.398437 5.128906l.054688-.054687c6.523438-2.804687 12.886719-5.957031 19.066406-9.449219 8.941406-4.945312 17.476563-10.601562 25.519532-16.910156l13.917968-10.855469 16.578125-12.847656 142.398438-125.753906 62.113281-52.488281 40.800781-36.265626c26.949219-24.964843 39.925781-61.574218 34.71875-97.941406zm0 0" fill="#cce3ff"/><path d="m416.800781 373.207031 4.855469-2.800781c9.871094-5.699219 15.964844-16.21875 16-27.617188l.054688-14.839843c.214843-50.984375-13.097657-101.113281-38.582032-145.273438l-13.175781-22.902343-62.113281 52.488281zm0 0" fill="#ff2c2c"/><path d="m280.246094 63.773438c-44.160156-25.488282-94.296875-38.800782-145.285156-38.582032l-14.839844.054688c-11.398438.035156-21.917969 6.128906-27.617188 16l-2.800781 4.855468 160.882813 92.878907 52.550781-62.054688zm0 0" fill="#ff2c2c"/><path d="m125.472656 378.628906 48.6875 84.289063 5.886719-3.390625c4.921875-2.890625 7.960937-8.152344 8-13.859375l-.054687-11.933594c.011718-28.082031-7.363282-55.671875-21.382813-80l-1.601563-2.878906-14.046874 10.863281c-8.03125 6.308594-16.554688 11.960938-25.488282 16.910156zm0 0" fill="#ff633b"/><path d="m101.265625 311.886719 10.796875-13.863281-2.878906-1.601563c-24.328125-14.019531-51.917969-21.394531-80-21.382813l-11.9375-.058593c-5.703125.042969-10.964844 3.082031-13.855469 8l-3.390625 5.890625 84.28125 48.648437c4.96875-8.984375 10.648438-17.554687 16.984375-25.632812zm0 0" fill="#ff5023"/><path d="m378.40625 51.636719c9.4375-5.582031 21.453125-4.058594 29.199219 3.695312 7.75 7.753907 9.257812 19.773438 3.667969 29.203125-2.257813 3.796875-1.003907 8.707032 2.792968 10.960938 3.800782 2.257812 8.710938 1.003906 10.964844-2.792969 9.320312-15.714844 6.8125-35.746094-6.097656-48.671875-12.90625-12.929688-32.933594-15.46875-48.660156-6.167969-2.496094 1.4375-4.023438 4.101563-4.003907 6.980469s1.582031 5.523438 4.09375 6.929688c2.507813 1.40625 5.582031 1.351562 8.042969-.136719zm0 0" fill="#acabb1"/></svg>