<?xml version="1.0" encoding="iso-8859-1"?>
<!-- Generator: Adobe Illustrator 19.0.0, SVG Export Plug-In . SVG Version: 6.00 Build 0)  -->
<svg version="1.1" id="Capa_1" xmlns="http://www.w3.org/2000/svg" xmlns:xlink="http://www.w3.org/1999/xlink" x="0px" y="0px"
	 viewBox="0 0 463.901 463.901" style="enable-background:new 0 0 463.901 463.901;" xml:space="preserve">
<path style="fill:#FFBF41;" d="M379.951,139.301C381.017,63.469,320.408,1.13,244.575,0.063c-5.397-0.076-10.793,0.166-16.161,0.726
	c-63.959,8.329-113.653,59.789-119.744,124c-4.519,42.859,10.838,85.427,41.68,115.528c23.697,22.484,37.264,53.616,37.6,86.28
	v1.304h112v-1.328c0.226-32.491,13.661-63.492,37.216-85.872C364.637,214.135,380.088,177.516,379.951,139.301z"/>
<g>
	<path style="fill:#D3D0C7;" d="M195.951,327.901h16v80h-16V327.901z"/>
	<path style="fill:#D3D0C7;" d="M275.951,327.901h16v80h-16V327.901z"/>
</g>
<path style="fill:#FFD884;" d="M195.951,399.901h96v64h-96V399.901z"/>
<g>
	<path style="fill:#FFBF41;" d="M291.951,423.901h-24v-24h-16v24h-16v-24h-16v24h-24v16h24v24h16v-24h16v24h16v-24h24V423.901z"/>
	<path style="fill:#FFBF41;" d="M171.951,143.901l8-8l0.176,0.176c-0.08-2.152-0.176-4.304-0.176-6.464
		c0-27.432,6.384-54.487,18.648-79.024l24.464-48.944c-61.539,10.538-108.403,60.974-114.4,123.12
		c-0.618,6.393-0.816,12.821-0.592,19.24C125.757,161.573,154.321,161.527,171.951,143.901L171.951,143.901z"/>
</g>
<path style="fill:#EC7422;" d="M204.111,221.045l-8.32-18.288c-9.519-20.993-14.84-43.645-15.664-66.68l-0.176-0.176l-8,8
	c-17.628,17.62-46.187,17.667-63.872,0.104c1.059,36.373,16.217,70.91,42.272,96.312c23.697,22.484,37.264,53.616,37.6,86.28v1.304
	h32v-33.712C219.95,268.957,214.549,244.017,204.111,221.045z"/>
<path style="fill:#FFBF41;" d="M264.871,1.741c1.112,2.208,13.24,26.344,24.36,48.536c12.308,24.567,18.718,51.666,18.72,79.144
	v0.192c0,2.16-0.096,4.312-0.176,6.464l0.176-0.176l8,8c17.582,17.581,46.06,17.67,63.752,0.2c0.056-1.6,0.248-3.2,0.248-4.8
	C380.559,71.415,331.797,13.128,264.871,1.741L264.871,1.741z"/>
<path style="fill:#EC7422;" d="M315.951,143.901l-8-8l-0.176,0.176c-0.824,23.035-6.145,45.687-15.664,66.68l-8.32,18.288
	c-10.439,22.972-15.84,47.912-15.84,73.144v33.712h32v-1.328c0.226-32.491,13.661-63.492,37.216-85.872
	c26.214-25.421,41.475-60.067,42.536-96.568C362.001,161.594,333.524,161.491,315.951,143.901L315.951,143.901z"/>
<path style="fill:#FFD884;" d="M179.951,129.613c0,2.16,0.096,4.312,0.176,6.464l8.512,8.512c30.55,30.543,80.074,30.543,110.624,0
	l8.512-8.512c0.08-2.152,0.176-4.304,0.176-6.464v-0.192c-0.001-27.469-6.405-54.559-18.704-79.12
	c-11.12-22.192-23.248-46.328-24.36-48.536c-12.058-1.974-24.328-2.294-36.472-0.952c-1.808,0.2-3.568,0.576-5.352,0.856
	l-24.464,48.92C186.335,75.126,179.95,102.182,179.951,129.613L179.951,129.613z"/>
<g>
	<path style="fill:#2276BB;" d="M339.951,359.901h16v16h-16V359.901z"/>
	<path style="fill:#2276BB;" d="M355.951,343.901h16v16h-16V343.901z"/>
	<path style="fill:#2276BB;" d="M371.951,359.901h16v16h-16V359.901z"/>
	<path style="fill:#2276BB;" d="M387.951,343.901h16v16h-16V343.901z"/>
	<path style="fill:#2276BB;" d="M403.951,327.901h16v16h-16V327.901z"/>
	<path style="fill:#2276BB;" d="M419.951,343.901h16v16h-16V343.901z"/>
	<path style="fill:#2276BB;" d="M11.951,263.901h16v16h-16V263.901z"/>
	<path style="fill:#2276BB;" d="M27.951,247.901h16v16h-16V247.901z"/>
	<path style="fill:#2276BB;" d="M43.951,263.901h16v16h-16V263.901z"/>
	<path style="fill:#2276BB;" d="M59.951,279.901h16v16h-16V279.901z"/>
	<path style="fill:#2276BB;" d="M387.951,55.901h16v16h-16V55.901z"/>
	<path style="fill:#2276BB;" d="M403.951,39.901h16v16h-16V39.901z"/>
	<path style="fill:#2276BB;" d="M419.951,55.901h16v16h-16V55.901z"/>
	<path style="fill:#2276BB;" d="M435.951,71.901h16v16h-16V71.901z"/>
	<path style="fill:#2276BB;" d="M67.951,415.901h16v16h-16V415.901z"/>
	<path style="fill:#2276BB;" d="M83.951,399.901h16v16h-16V399.901z"/>
	<path style="fill:#2276BB;" d="M99.951,415.901h16v16h-16V415.901z"/>
</g>
<g>
</g>
<g>
</g>
<g>
</g>
<g>
</g>
<g>
</g>
<g>
</g>
<g>
</g>
<g>
</g>
<g>
</g>
<g>
</g>
<g>
</g>
<g>
</g>
<g>
</g>
<g>
</g>
<g>
</g>
</svg>
