<?xml version="1.0" encoding="UTF-8"?>
<svg width="513px" height="513px" viewBox="0 0 513 513" version="1.1" xmlns="http://www.w3.org/2000/svg" xmlns:xlink="http://www.w3.org/1999/xlink">
    <!-- Generator: Sketch 53 (72520) - https://sketchapp.com -->
    <title>loan</title>
    <desc>Created with Sketch.</desc>
    <g id="Page-1" stroke="none" stroke-width="1" fill="none" fill-rule="evenodd">
        <g id="loan" fill="#4CAF4F" fill-rule="nonzero">
            <path d="M179.366287,375.561423 L128.181766,375.561423 C123.470691,375.561423 119.651013,379.381102 119.651013,384.092177 L119.651013,435.276698 C119.651013,439.99194 123.470691,443.807451 128.181766,443.807451 L179.366287,443.807451 C184.077363,443.807451 187.897041,439.99194 187.897041,435.276698 L187.897041,384.092177 C187.897041,379.381102 184.077363,375.561423 179.366287,375.561423 Z M170.835534,426.745944 L136.71252,426.745944 L136.71252,392.62293 L170.835534,392.62293 L170.835534,426.745944 Z" id="Shape"></path>
            <path d="M298.796836,281.723135 L213.489301,281.723135 C204.067151,281.723135 196.427794,289.362492 196.427794,298.784642 L196.427794,332.907656 C196.427794,342.333972 204.067151,349.969163 213.489301,349.969163 L298.796836,349.969163 C308.218987,349.969163 315.858343,342.333972 315.858343,332.907656 L315.858343,298.784642 C315.858343,289.362492 308.218987,281.723135 298.796836,281.723135 Z M298.796836,307.315396 L264.673822,307.315396 L264.673822,298.784642 L298.796836,298.784642 L298.796836,307.315396 Z M247.612315,298.784642 L247.612315,307.315396 L213.489301,307.315396 L213.489301,298.784642 L247.612315,298.784642 Z M213.489301,324.376902 L247.612315,324.376902 L247.612315,332.907656 L213.489301,332.907656 L213.489301,324.376902 Z M264.673822,332.907656 L264.673822,324.376902 L298.796836,324.376902 L298.796836,332.907656 L264.673822,332.907656 Z" id="Shape"></path>
            <path d="M468.670464,452.929693 C466.546106,441.708086 460.014748,431.811079 450.534282,425.446337 C441.053815,419.081596 429.415669,416.786457 418.227385,419.0691 L418.227385,268.193893 L433.522759,283.489268 C443.923781,293.89029 460.781183,293.89029 471.178039,283.489268 C481.574894,273.092412 481.574894,256.235011 471.178039,245.833989 L418.227385,192.887501 L418.227385,85.5158047 C427.649536,85.5158047 435.288892,77.880614 435.288892,68.4542977 L435.288892,51.3927908 C435.288892,41.9706407 427.649536,34.3312838 418.227385,34.3312838 L332.91985,34.3312838 C323.4977,34.3312838 315.858343,41.9706407 315.858343,51.3927908 L315.858343,68.4542977 C315.858343,77.880614 323.4977,85.5158047 332.91985,85.5158047 L332.91985,107.579966 L274.204273,48.8352314 C264.215628,38.8882395 248.070511,38.8882395 238.08603,48.8352314 L224.435991,62.4852698 C200.101684,17.7029791 150.029326,-6.70213956 99.7653605,1.72031282 C49.4972291,10.1386001 10.1133058,49.5308546 1.70334886,99.7989861 C-6.70660703,150.067117 17.706843,200.131144 62.497464,224.457121 L41.1080989,245.833989 C30.7112431,256.235011 30.7112431,273.092412 41.1080989,283.489268 C51.5091209,293.89029 68.3665221,293.89029 78.763378,283.489268 L94.0587524,268.193893 L94.0587524,447.068965 C84.7698954,436.288892 69.7452721,432.440056 56.4201349,437.426049 C43.0908326,442.412041 34.2809976,455.170682 34.3434779,469.399712 C15.4991768,469.399712 0.220463978,484.678426 0.220463978,503.522726 C0.220463978,508.237968 4.04014191,512.053479 8.75121747,512.053479 L503.53492,512.053479 C508.245996,512.053479 512.065673,508.237968 512.065673,503.522726 C512.03235,478.272029 493.621251,456.807687 468.670464,452.929693 Z M392.568478,435.626593 C392.568478,435.509961 392.635125,435.405826 392.635125,435.276698 L392.635125,384.092177 C392.635125,379.381102 388.815447,375.561423 384.104371,375.561423 L332.91985,375.561423 C328.208775,375.561423 324.389097,379.381102 324.389097,384.092177 L324.389097,435.276698 C324.389097,439.99194 328.208775,443.807451 332.91985,443.807451 L384.104371,443.807451 C385.658068,443.769963 387.170111,443.295107 388.465552,442.437033 C385.628911,448.168633 384.137694,454.475059 384.104371,460.868958 L384.104371,461.722868 C367.388593,465.184321 354.338373,478.267864 350.918574,494.991972 L315.858343,494.991972 L315.858343,367.03067 C315.858343,362.319595 312.038665,358.499916 307.32759,358.499916 L204.958548,358.499916 C200.247472,358.499916 196.427794,362.319595 196.427794,367.03067 L196.427794,494.991972 L144.48517,494.991972 C141.361114,476.705836 128.602472,461.531258 111.120259,455.308141 L111.120259,256.130875 L401.165878,256.130875 L401.165878,426.970877 C397.900199,429.428468 395.005242,432.344251 392.568478,435.626593 L392.568478,435.626593 Z M375.573618,392.62293 L375.573618,426.745944 L341.450604,426.745944 L341.450604,392.62293 L375.573618,392.62293 Z M332.91985,51.3927908 L418.227385,51.3927908 L418.227385,68.4542977 L332.91985,68.4542977 L332.91985,51.3927908 Z M349.981357,85.5158047 L401.165878,85.5158047 L401.165878,175.825994 L349.981357,124.641473 L349.981357,85.5158047 Z M250.174041,60.9232419 C253.49387,57.6367361 258.842252,57.6367361 262.166248,60.9232419 L459.140013,257.897007 C462.872218,261.637543 462.872218,267.689879 459.140013,271.426249 C455.399477,275.145958 449.355472,275.145958 445.610771,271.426249 L274.204273,100.019752 C264.215628,90.0727605 248.070511,90.0727605 238.08603,100.019752 L237.436226,100.669556 C236.257416,93.3426047 234.399644,86.1406163 231.883738,79.1635594 L250.174041,60.9232419 Z M17.281971,119.638819 C17.281971,63.10175 63.1139442,17.2697768 119.651013,17.2697768 C176.188082,17.2697768 222.020055,63.10175 222.020055,119.638819 C222.020055,176.175888 176.188082,222.007861 119.651013,222.007861 C63.1389372,221.949545 17.3444523,176.150895 17.281971,119.638819 Z M66.7003593,271.426249 C62.9639896,275.158454 56.9116535,275.158454 53.1711175,271.426249 C49.4514093,267.685714 49.4514093,261.641708 53.1711175,257.897007 L79.2007465,231.871544 C86.1778024,234.387451 93.3797908,236.249387 100.706742,237.424033 L96.5663279,241.560281 L66.7003593,271.426249 Z M123.370721,238.881925 C186.314186,236.857537 236.865565,186.301993 238.894119,123.358528 L250.174041,112.107763 C253.49387,108.821257 258.842252,108.821257 262.166248,112.107763 L389.102859,239.069368 L123.183278,239.069368 L123.370721,238.881925 Z M19.5771105,494.991972 C24.0632535,487.281805 33.7478255,484.353523 41.7579024,488.281502 C45.0319128,489.89768 48.9765535,489.247877 51.5591047,486.665325 C54.1458233,484.086937 54.7997919,480.146463 53.1877791,476.864121 C52.0256303,474.548156 51.4174814,471.994761 51.4049849,469.399712 C51.379993,461.081394 57.3823442,453.966879 65.5840303,452.583964 C73.7898826,451.205214 81.787464,455.962109 84.4866477,463.830563 C85.6529616,467.429475 89.1060838,469.78293 92.8841081,469.545501 C93.279821,469.553833 93.6755349,469.503848 94.0587524,469.399712 C109.612383,469.42054 123.191609,479.938192 127.098761,494.991972 L19.5771105,494.991972 Z M213.489301,494.991972 L213.489301,375.561423 L298.796836,375.561423 L298.796836,494.991972 L213.489301,494.991972 Z M368.500757,494.991972 C372.003864,484.911688 381.434345,478.092916 392.106119,477.930465 C392.397697,477.930465 393.259936,478.059593 393.547349,478.067925 C396.254863,478.176225 398.845747,476.993249 400.541068,474.881388 C402.232222,472.769527 402.823711,469.978704 402.132252,467.362828 C401.528269,465.250968 401.203368,463.068293 401.165878,460.868958 C401.165878,446.735733 412.624913,435.276698 426.758139,435.276698 C440.891365,435.276698 452.350399,446.735733 452.350399,460.868958 C452.350399,465.5842 456.170077,469.399712 460.881153,469.399712 C476.434783,469.42054 490.014009,479.938192 493.921161,494.991972 L368.500757,494.991972 Z" id="Shape"></path>
            <path d="M128.181766,196.4156 L128.181766,179.354093 C142.314993,179.354093 153.774027,167.899224 153.774027,153.761833 L153.774027,136.700326 C153.774027,122.5671 142.314993,111.108065 128.181766,111.108065 L111.120259,111.108065 C106.409184,111.108065 102.589506,107.292553 102.589506,102.577312 L102.589506,85.5158047 C102.589506,80.8047302 106.409184,76.9850512 111.120259,76.9850512 L128.181766,76.9850512 C132.892842,76.9850512 136.71252,80.8047302 136.71252,85.5158047 L136.71252,94.0465582 L153.774027,94.0465582 L153.774027,85.5158047 C153.774027,71.3825791 142.314993,59.9235443 128.181766,59.9235443 L128.181766,42.8620373 L111.120259,42.8620373 L111.120259,59.9235443 C96.9870338,59.9235443 85.5279989,71.3825791 85.5279989,85.5158047 L85.5279989,102.577312 C85.5279989,116.714704 96.9870338,128.169572 111.120259,128.169572 L128.181766,128.169572 C132.892842,128.169572 136.71252,131.989251 136.71252,136.700326 L136.71252,153.761833 C136.71252,158.477074 132.892842,162.292586 128.181766,162.292586 L111.120259,162.292586 C106.409184,162.292586 102.589506,158.477074 102.589506,153.761833 L102.589506,145.231079 L85.5279989,145.231079 L85.5279989,153.761833 C85.5279989,167.899224 96.9870338,179.354093 111.120259,179.354093 L111.120259,196.4156 L128.181766,196.4156 Z" id="Path"></path>
            <path d="M239.081562,401.153684 L222.020055,401.153684 L222.020055,418.215191 L230.550808,418.215191 L230.550808,435.276698 L222.020055,435.276698 L222.020055,452.338205 L239.081562,452.338205 C243.792637,452.338205 247.612315,448.522693 247.612315,443.807451 L247.612315,409.684437 C247.612315,404.973363 243.792637,401.153684 239.081562,401.153684 Z" id="Path"></path>
        </g>
    </g>
</svg>