<svg xmlns="http://www.w3.org/2000/svg" xmlns:xlink="http://www.w3.org/1999/xlink" viewBox="0 0 116.64 34.56"><defs><linearGradient id="a" x1="18.95" y1="609.89" x2="4.45" y2="624.39" gradientTransform="translate(9.25 -599)" gradientUnits="userSpaceOnUse"><stop offset="0" stop-color="#00a0ff"/><stop offset="0.01" stop-color="#00a1ff"/><stop offset="0.26" stop-color="#00beff"/><stop offset="0.51" stop-color="#00d2ff"/><stop offset="0.76" stop-color="#00dfff"/><stop offset="1" stop-color="#00e3ff"/></linearGradient><linearGradient id="b" x1="29.34" y1="619.65" x2="8.44" y2="619.65" gradientTransform="translate(9.25 -599)" gradientUnits="userSpaceOnUse"><stop offset="0" stop-color="#ffe000"/><stop offset="0.41" stop-color="#ffbd00"/><stop offset="0.78" stop-color="orange"/><stop offset="1" stop-color="#ff9c00"/></linearGradient><linearGradient id="c" x1="21.56" y1="621.63" x2="1.89" y2="641.29" gradientTransform="translate(9.25 -599)" gradientUnits="userSpaceOnUse"><stop offset="0" stop-color="#ff3a44"/><stop offset="1" stop-color="#c31162"/></linearGradient><linearGradient id="d" x1="6.41" y1="602.52" x2="15.19" y2="611.3" gradientTransform="translate(9.25 -599)" gradientUnits="userSpaceOnUse"><stop offset="0" stop-color="#32a071"/><stop offset="0.07" stop-color="#2da771"/><stop offset="0.48" stop-color="#15cf74"/><stop offset="0.8" stop-color="#06e775"/><stop offset="1" stop-color="#00f076"/></linearGradient></defs><title>googleplay_bt</title><rect width="116.64" height="34.56" rx="4.32" ry="4.32"/><path d="M121.68,4.06a3.63,3.63,0,0,1,3.67,3.59v26a3.63,3.63,0,0,1-3.63,3.63h-108A3.63,3.63,0,0,1,10,33.61h0V7.69a3.63,3.63,0,0,1,3.63-3.63h108m0-.69h-108A4.32,4.32,0,0,0,9.36,7.69V33.61a4.32,4.32,0,0,0,4.32,4.32h108A4.32,4.32,0,0,0,126,33.61V7.69A4.32,4.32,0,0,0,121.68,3.37Z" transform="translate(-9.36 -3.37)" style="fill:#a6a6a6"/><path d="M50.33,12.21a2.34,2.34,0,0,1-.65,1.73,2.51,2.51,0,0,1-1.9.77,2.67,2.67,0,0,1-2.7-2.64s0,0,0-.06a2.67,2.67,0,0,1,2.63-2.7h.06a2.68,2.68,0,0,1,1.06.22,2.13,2.13,0,0,1,.81.58l-.46.46a1.73,1.73,0,0,0-1.42-.61,2,2,0,0,0-2,2s0,0,0,.07a2,2,0,0,0,3.46,1.49,1.63,1.63,0,0,0,.43-1.05H47.78v-.62H50.3A2.19,2.19,0,0,1,50.33,12.21Z" transform="translate(-9.36 -3.37)" style="fill:#fff;stroke:#fff;stroke-miterlimit:10;stroke-width:0.20000000298023224px"/><path d="M54.31,10.05h-2.4V11.7H54v.62H51.91V14h2.36v.64h-3V9.41h3Z" transform="translate(-9.36 -3.37)" style="fill:#fff;stroke:#fff;stroke-miterlimit:10;stroke-width:0.20000000298023224px"/><path d="M57.09,14.6h-.67V10.05H55V9.41h3.56v.64H57.09Z" transform="translate(-9.36 -3.37)" style="fill:#fff;stroke:#fff;stroke-miterlimit:10;stroke-width:0.20000000298023224px"/><path d="M61.15,14.6V9.41h.67V14.6Z" transform="translate(-9.36 -3.37)" style="fill:#fff;stroke:#fff;stroke-miterlimit:10;stroke-width:0.20000000298023224px"/><path d="M64.77,14.6H64.1V10.05H62.65V9.41h3.56v.64H64.77Z" transform="translate(-9.36 -3.37)" style="fill:#fff;stroke:#fff;stroke-miterlimit:10;stroke-width:0.20000000298023224px"/><path d="M73,13.92a2.7,2.7,0,0,1-3.8,0A2.71,2.71,0,0,1,73,10.07h0A2.65,2.65,0,0,1,73.72,12,2.65,2.65,0,0,1,73,13.92Zm-3.31-.43a2,2,0,0,0,2.82,0A2,2,0,0,0,73,12a2,2,0,0,0-.58-1.49,2,2,0,0,0-2.82,0A2,2,0,0,0,69.07,12,2,2,0,0,0,69.65,13.49Z" transform="translate(-9.36 -3.37)" style="fill:#fff;stroke:#fff;stroke-miterlimit:10;stroke-width:0.20000000298023224px"/><path d="M74.66,14.6V9.41h.81l2.52,4h0v-4h.7V14.6H78l-2.68-4.23h0V14.6Z" transform="translate(-9.36 -3.37)" style="fill:#fff;stroke:#fff;stroke-miterlimit:10;stroke-width:0.20000000298023224px"/><path d="M68.23,22.16a3.67,3.67,0,1,0,3.69,3.67,3.62,3.62,0,0,0-3.57-3.67Zm0,5.9a2.23,2.23,0,1,1,2.07-2.38s0,.1,0,.15a2.13,2.13,0,0,1-2,2.23Zm-8-5.9a3.67,3.67,0,1,0,3.68,3.67,3.62,3.62,0,0,0-3.57-3.67h-.11Zm0,5.9a2.23,2.23,0,1,1,2.09-2.36s0,.09,0,.13a2.13,2.13,0,0,1-2,2.23h-.07Zm-9.58-4.77v1.56h3.73a3.26,3.26,0,0,1-.86,2,3.82,3.82,0,0,1-2.88,1.14,4.15,4.15,0,0,1,0-8.29,4,4,0,0,1,2.81,1.11l1.1-1.1a5.43,5.43,0,0,0-3.9-1.62,5.71,5.71,0,1,0-.44,11.41h.44a5,5,0,0,0,5.33-5.24,5.07,5.07,0,0,0-.09-1ZM89.75,24.5a3.39,3.39,0,0,0-6.61,1.11q0,.11,0,.22a3.59,3.59,0,0,0,3.52,3.67h.13a3.65,3.65,0,0,0,3.06-1.62L88.61,27a2.1,2.1,0,0,1-1.81,1A1.87,1.87,0,0,1,85,26.92l4.91-2Zm-5,1.23a2,2,0,0,1,1.88-2.14h0a1.43,1.43,0,0,1,1.37.78Zm-4,3.56h1.62V18.49H80.75ZM78.11,23h-.05a2.59,2.59,0,0,0-1.94-.86,3.68,3.68,0,0,0,0,7.35,2.51,2.51,0,0,0,1.94-.86h.05v.53c0,1.41-.75,2.16-2,2.16A2,2,0,0,1,74.3,30l-1.41.59a3.5,3.5,0,0,0,3.21,2.24c1.89,0,3.46-1.11,3.46-3.83V22.37H78.11Zm-1.85,5.08a2.24,2.24,0,0,1,0-4.46,2.07,2.07,0,0,1,2,2.18v.05a2.06,2.06,0,0,1-1.87,2.22h-.09Zm21.06-9.57H93.45v10.8h1.66v-4.1h2.26a3.36,3.36,0,1,0,0-6.7Zm0,5.18H95.11V20H97.4a1.85,1.85,0,0,1,0,3.71Zm10-1.56a3,3,0,0,0-2.88,1.65l1.43.6a1.53,1.53,0,0,1,1.47-.79A1.56,1.56,0,0,1,109,24.93v.14a3.57,3.57,0,0,0-1.68-.41c-1.55,0-3.11.86-3.11,2.43a2.5,2.5,0,0,0,2.61,2.38h.07a2.27,2.27,0,0,0,2.07-1H109v.86h1.56V25.13a3,3,0,0,0-3.27-3Zm-.2,5.92c-.53,0-1.26-.27-1.26-.92,0-.86.92-1.15,1.73-1.15a2.87,2.87,0,0,1,1.47.36,2,2,0,0,1-1.89,1.73Zm9.18-5.66-1.85,4.68h-.05l-1.92-4.68h-1.73l2.88,6.55L112,32.56h1.68l4.42-10.19Zm-14.52,6.91h1.62V18.49h-1.62Z" transform="translate(-9.36 -3.37)" style="fill:#fff"/><path d="M18.38,9.88a1.73,1.73,0,0,0-.4,1.21V30.2a1.73,1.73,0,0,0,.4,1.21l.06.06,10.71-10.7v-.25L18.44,9.82Z" transform="translate(-9.36 -3.37)" style="fill:url(#a)"/><path d="M32.71,24.34l-3.57-3.57v-.25L32.71,17l.08,0L37,19.4a1.31,1.31,0,0,1,0,2.5l-4.23,2.4Z" transform="translate(-9.36 -3.37)" style="fill:url(#b)"/><path d="M32.79,24.29l-3.65-3.65L18.38,31.41a1.41,1.41,0,0,0,1.8.05L32.8,24.29" transform="translate(-9.36 -3.37)" style="fill:url(#c)"/><path d="M32.79,17,20.17,9.83a1.41,1.41,0,0,0-1.8.05L29.14,20.65Z" transform="translate(-9.36 -3.37)" style="fill:url(#d)"/><path d="M32.71,24.21,20.17,31.34a1.44,1.44,0,0,1-1.73,0h0l-.06.06h0l.06.06h0a1.43,1.43,0,0,0,1.73,0l12.62-7.17Z" transform="translate(-9.36 -3.37)" style="opacity:0.20000000298023224;isolation:isolate"/><path d="M18.38,31.29a1.73,1.73,0,0,1-.4-1.21v.13a1.73,1.73,0,0,0,.4,1.21l.06-.06Z" transform="translate(-9.36 -3.37)" style="opacity:0.11999999731779099;isolation:isolate"/><path d="M37,21.77,32.7,24.21l.08.08L37,21.89a1.51,1.51,0,0,0,.86-1.24h0A1.61,1.61,0,0,1,37,21.77Z" transform="translate(-9.36 -3.37)" style="opacity:0.11999999731779099;isolation:isolate"/><path d="M20.17,9.95,37,19.52a1.61,1.61,0,0,1,.86,1.12h0A1.51,1.51,0,0,0,37,19.4L20.17,9.83C19,9.15,18,9.72,18,11.1v.13C18,9.84,19,9.27,20.17,9.95Z" transform="translate(-9.36 -3.37)" style="fill:#fff;opacity:0.25;isolation:isolate"/></svg>