<?xml version="1.0"?>
<svg xmlns="http://www.w3.org/2000/svg" xmlns:xlink="http://www.w3.org/1999/xlink" version="1.1" id="Capa_1" x="0px" y="0px" width="512px" height="512px" viewBox="0 0 611.979 611.979" style="enable-background:new 0 0 611.979 611.979;" xml:space="preserve" class=""><g><g>
	<path d="M560.021,129.666c18.021,0,32.662,14.641,32.662,32.644v225.163c0,18.002-14.66,32.645-32.662,32.645H273.936   c-2.588,0-5.157,0.521-7.533,1.525l-128.875,54.664l-18.852-44.426c-3.033-7.127-10.025-11.762-17.79-11.762H51.959   c-18.002,0-32.644-14.643-32.644-32.645V162.309c0-18.002,14.641-32.644,32.644-32.644L560.021,129.666 M560.021,110.35H51.959   C23.256,110.35,0,133.625,0,162.309v225.164c0,28.703,23.256,51.959,51.959,51.959h48.907l26.385,62.197l146.664-62.197H560   c28.703,0,51.979-23.275,51.979-51.959V162.309C612,133.625,588.724,110.35,560.021,110.35L560.021,110.35z" data-original="#000000" class="active-path" data-old_color="#ffffff" fill="#ffffff"/>
</g></g> </svg>
